Results
version=1
nRows=30
nColumns=23
inDegrees=yes
endheader
time	pelvis_tilt	pelvis_list	pelvis_rotation	pelvis_tx	pelvis_ty	pelvis_tz	hip_flexion_r	hip_adduction_r	hip_rotation_r	knee_angle_beta	knee_angle_r	ankle_angle_r	subtalar_angle_r	mtp_angle_r	hip_flexion_l	hip_adduction_l	hip_rotation_l	knee_angle_l_beta	knee_angle_l	ankle_angle_l	subtalar_angle_l	mtp_angle_l
      2.89500000	     -3.28095100	     -6.51958292	     89.86798399	     -0.05310120	      0.83274979	     -0.14396003	     52.96625748	    -14.63790151	     -3.24467094	     75.22901925	    -75.22901925	     34.57612282	      0.00000000	      0.00000000	     47.64232431	    -14.75956686	    -11.07918615	     74.53259044	    -74.53259044	     34.04884151	      0.00000000	      0.00000000
      2.90000000	     -3.23420978	     -6.56592139	     89.87154031	     -0.05376813	      0.83420549	     -0.14430949	     52.76618122	    -14.61085686	     -3.27289091	     74.87827212	    -74.87827212	     34.51765745	      0.00000000	      0.00000000	     47.52751408	    -14.63539181	    -10.98455853	     74.26092013	    -74.26092013	     33.98240450	      0.00000000	      0.00000000
      2.90500000	     -3.22352119	     -6.02894048	     89.86388761	     -0.05423498	      0.83726421	     -0.14496976	     51.82197212	    -14.58843834	     -3.29985089	     74.36140058	    -74.36140058	     34.33158765	      0.00000000	      0.00000000	     46.61325264	    -14.55271967	    -11.09048776	     73.76837019	    -73.76837019	     33.86136776	      0.00000000	      0.00000000
      2.91000000	     -3.17644153	     -6.13795238	     89.86575098	     -0.05489634	      0.83872462	     -0.14537969	     51.66939352	    -14.54762910	     -3.32849408	     73.99161503	    -73.99161503	     34.29062910	      0.00000000	      0.00000000	     46.55232324	    -14.42997442	    -10.99941141	     73.47625760	    -73.47625760	     33.79411436	      0.00000000	      0.00000000
      2.91500000	     -3.14354652	     -5.72361887	     89.85800167	     -0.05540021	      0.84163448	     -0.14605831	     50.83856046	    -14.50517504	     -3.37363931	     73.45674124	    -73.45674124	     34.08025287	      0.00000000	      0.00000000	     45.77745225	    -14.35347567	    -11.07186278	     72.98271195	    -72.98271195	     33.63532853	      0.00000000	      0.00000000
      2.92000000	     -3.08440708	     -5.78177490	     89.85466200	     -0.05599263	      0.84354477	     -0.14666436	     50.55891969	    -14.43105365	     -3.40609938	     72.98189375	    -72.98189375	     33.99574120	      0.00000000	      0.00000000	     45.58031938	    -14.27051702	    -11.04909571	     72.57181623	    -72.57181623	     33.52154356	      0.00000000	      0.00000000
      2.92500000	     -3.04619585	     -5.49558801	     89.85025904	     -0.05657010	      0.84609754	     -0.14719111	     49.89853275	    -14.38080759	     -3.43565601	     72.48312516	    -72.48312516	     33.81918883	      0.00000000	      0.00000000	     45.00563209	    -14.15541031	    -11.02835622	     72.15524553	    -72.15524553	     33.37736019	      0.00000000	      0.00000000
      2.93000000	     -3.01656419	     -5.22953270	     89.84595105	     -0.05717605	      0.84878089	     -0.14783984	     49.23421513	    -14.34307834	     -3.47809712	     71.94999375	    -71.94999375	     33.71551496	      0.00000000	      0.00000000	     44.39920654	    -14.03850733	    -11.05327133	     71.67193314	    -71.67193314	     33.28055661	      0.00000000	      0.00000000
      2.93500000	     -2.95707788	     -5.37423914	     89.84522418	     -0.05782413	      0.85055056	     -0.14836543	     49.05128200	    -14.25615582	     -3.49557415	     71.46780877	    -71.46780877	     33.66849974	      0.00000000	      0.00000000	     44.31892335	    -13.91707472	    -10.96556991	     71.28247004	    -71.28247004	     33.19785669	      0.00000000	      0.00000000
      2.94000000	     -2.92174182	     -4.90337528	     89.83473902	     -0.05834521	      0.85384051	     -0.14914808	     48.10454540	    -14.20017537	     -3.54806290	     70.85305832	    -70.85305832	     33.48250088	      0.00000000	      0.00000000	     43.43324282	    -13.82875559	    -11.04496711	     70.71257572	    -70.71257572	     33.03201866	      0.00000000	      0.00000000
      2.94500000	     -2.86328840	     -4.73464103	     89.82823456	     -0.05893366	      0.85644986	     -0.14982142	     47.51208823	    -14.11060308	     -3.58510704	     70.27326914	    -70.27326914	     33.35214176	      0.00000000	      0.00000000	     42.93620685	    -13.73003384	    -11.03370305	     70.21918968	    -70.21918968	     32.90832234	      0.00000000	      0.00000000
      2.95000000	     -2.78026844	     -4.86400671	     89.82182913	     -0.05952613	      0.85851470	     -0.15050139	     47.25851875	    -13.98705772	     -3.62992793	     69.71992616	    -69.71992616	     33.25299156	      0.00000000	      0.00000000	     42.78105959	    -13.65040321	    -10.98763937	     69.74185975	    -69.74185975	     32.75726998	      0.00000000	      0.00000000
      2.95500000	     -2.70446704	     -4.47983888	     89.81369032	     -0.06008554	      0.86163650	     -0.15121942	     46.39611334	    -13.87968814	     -3.68992069	     69.09607770	    -69.09607770	     33.05774883	      0.00000000	      0.00000000	     42.02683877	    -13.56188821	    -10.96990619	     69.20612048	    -69.20612048	     32.58350060	      0.00000000	      0.00000000
      2.96000000	     -2.64271651	     -4.29007531	     89.80304440	     -0.06062404	      0.86446096	     -0.15195789	     45.74496221	    -13.74486144	     -3.68776664	     68.45899043	    -68.45899043	     32.95169346	      0.00000000	      0.00000000	     41.47669209	    -13.45614163	    -10.94615607	     68.65701879	    -68.65701879	     32.44625012	      0.00000000	      0.00000000
      2.96500000	     -2.55293023	     -4.33192799	     89.79264358	     -0.06115902	      0.86680198	     -0.15268550	     45.36108682	    -13.57817480	     -3.68810967	     67.85778977	    -67.85778977	     32.83688922	      0.00000000	      0.00000000	     41.21315382	    -13.36712392	    -10.86257479	     68.15560954	    -68.15560954	     32.27427678	      0.00000000	      0.00000000
      2.97000000	     -2.47001494	     -3.97437424	     89.77913495	     -0.06166620	      0.87004869	     -0.15349505	     44.49193944	    -13.43461315	     -3.74281060	     67.18101560	    -67.18101560	     32.72407046	      0.00000000	      0.00000000	     40.44928681	    -13.28238368	    -10.84715968	     67.55488156	    -67.55488156	     32.15375166	      0.00000000	      0.00000000
      2.97500000	     -2.37555122	     -3.81876000	     89.76586050	     -0.06216482	      0.87288565	     -0.15428399	     43.85770068	    -13.25690209	     -3.76102081	     66.52822506	    -66.52822506	     32.60387135	      0.00000000	      0.00000000	     39.93345927	    -13.19640504	    -10.77679161	     66.99212967	    -66.99212967	     31.98121207	      0.00000000	      0.00000000
      2.98000000	     -2.27083485	     -3.95798051	     89.75025082	     -0.06266672	      0.87517731	     -0.15508519	     43.55807727	    -13.05370004	     -3.76266990	     65.90161212	    -65.90161212	     32.51809986	      0.00000000	      0.00000000	     39.75726401	    -13.11192583	    -10.66941265	     66.45457445	    -66.45457445	     31.80908467	      0.00000000	      0.00000000
      2.98500000	     -2.13575207	     -3.52183329	     89.73345541	     -0.06303765	      0.87861480	     -0.15592301	     42.57557740	    -12.81738548	     -3.79777440	     65.19282947	    -65.19282947	     32.34401076	      0.00000000	      0.00000000	     38.91698362	    -13.07501607	    -10.58890781	     65.85558838	    -65.85558838	     31.61330068	      0.00000000	      0.00000000
      2.99000000	     -2.03367601	     -3.33680723	     89.70849557	     -0.06344050	      0.88157212	     -0.15681242	     41.89092166	    -12.60185134	     -3.79876348	     64.51945398	    -64.51945398	     32.26799881	      0.00000000	      0.00000000	     38.34331646	    -12.99377081	    -10.49743466	     65.25488840	    -65.25488840	     31.46919739	      0.00000000	      0.00000000
      2.99500000	     -1.90389882	     -3.18214474	     89.68915593	     -0.06380329	      0.88446935	     -0.15770284	     41.23321713	    -12.35285772	     -3.81169181	     63.85139098	    -63.85139098	     32.16519797	      0.00000000	      0.00000000	     37.81534621	    -12.93976560	    -10.38278530	     64.66764952	    -64.66764952	     31.28575696	      0.00000000	      0.00000000
      3.00000000	     -1.76192327	     -3.05468040	     89.66100176	     -0.06409810	      0.88731004	     -0.15861769	     40.60725559	    -12.07372022	     -3.81207583	     63.18783920	    -63.18783920	     32.04271090	      0.00000000	      0.00000000	     37.31891111	    -12.90741170	    -10.26183160	     64.08453079	    -64.08453079	     31.06676388	      0.00000000	      0.00000000
      3.00500000	     -1.66456118	     -3.23933011	     89.63535444	     -0.06441336	      0.88937548	     -0.15940991	     40.41020700	    -11.81110915	     -3.71989398	     62.66126164	    -62.66126164	     32.04793667	      0.00000000	      0.00000000	     37.20089391	    -12.79095236	    -10.05884869	     63.55756396	    -63.55756396	     30.99874139	      0.00000000	      0.00000000
      3.01000000	     -1.50305300	     -2.63914225	     89.60018611	     -0.06460020	      0.89324415	     -0.16061992	     39.17300597	    -11.54942912	     -3.83709522	     61.87863079	    -61.87863079	     31.89451357	      0.00000000	      0.00000000	     36.10199970	    -12.81360889	    -10.03064903	     62.86544271	    -62.86544271	     30.79669636	      0.00000000	      0.00000000
      3.01500000	     -1.40566220	     -2.79352403	     89.55387853	     -0.06477846	      0.89544836	     -0.16163560	     38.90327539	    -11.29839788	     -3.80712819	     61.31000983	    -61.31000983	     31.85013516	      0.00000000	      0.00000000	     35.90877861	    -12.74919885	     -9.92267965	     62.30580290	    -62.30580290	     30.64222974	      0.00000000	      0.00000000
      3.02000000	     -1.39325310	     -2.37425587	     89.50895570	     -0.06492736	      0.89876966	     -0.16273495	     37.99911848	    -11.14287789	     -3.75299632	     60.73186799	    -60.73186799	     31.68305956	      0.00000000	      0.00000000	     35.00120269	    -12.57974166	     -9.85800782	     61.61109149	    -61.61109149	     30.42921542	      0.00000000	      0.00000000
      3.02500000	     -1.28485370	     -2.04170343	     89.45971767	     -0.06495138	      0.90182753	     -0.16390386	     37.16545216	    -10.89811966	     -3.78490887	     60.16355607	    -60.16355607	     31.61723260	      0.00000000	      0.00000000	     34.22462159	    -12.55903200	     -9.80552529	     60.98165703	    -60.98165703	     30.29626517	      0.00000000	      0.00000000
      3.03000000	     -1.11715097	     -1.86251081	     89.41625723	     -0.06487457	      0.90448296	     -0.16506035	     36.50847758	    -10.58583687	     -3.84105367	     59.64093408	    -59.64093408	     31.47589991	      0.00000000	      0.00000000	     33.66194278	    -12.60225208	     -9.68690933	     60.41397184	    -60.41397184	     30.16675831	      0.00000000	      0.00000000
      3.03500000	     -1.08210812	     -1.64364174	     89.35713259	     -0.06478917	      0.90712486	     -0.16625003	     35.86551517	    -10.41593325	     -3.84761048	     59.20189344	    -59.20189344	     31.32179264	      0.00000000	      0.00000000	     33.01848427	    -12.50983893	     -9.64369358	     59.82457627	    -59.82457627	     30.01475622	      0.00000000	      0.00000000
      3.04000000	     -1.05462708	     -1.43696731	     89.30176951	     -0.06464045	      0.90967173	     -0.16745876	     35.24518410	    -10.26458581	     -3.87457923	     58.80737342	    -58.80737342	     31.17343872	      0.00000000	      0.00000000	     32.38938329	    -12.42075021	     -9.60457061	     59.23488461	    -59.23488461	     29.86911545	      0.00000000	      0.00000000
